<svg width="46" height="42" viewBox="0 0 46 42" fill="none" xmlns="http://www.w3.org/2000/svg">
<path fill-rule="evenodd" clip-rule="evenodd" d="M8.64961 0V-2.69744e-05L11.7949 -2.68452e-05V0H17.2991V-2.69744e-05L20.4444 -2.68452e-05V0H25.9488V-2.69744e-05L29.0941 -2.68452e-05V0L34.5983 -2.69744e-05L37.7436 -2.68452e-05L46 0V34.7378C46 36.7771 44.2398 38.4303 42.0684 38.4303H28.3093L23.1966 42L18.0839 38.4303H3.93162C1.76025 38.4303 0 36.7771 0 34.7378V0H8.64961ZM8.64961 2.95402H3.1453V34.7378C3.1453 35.1457 3.49735 35.4763 3.93162 35.4763H8.64961L8.64961 2.95402ZM11.7949 35.4763H17.2991L17.2991 2.95402H11.7949L11.7949 35.4763ZM20.4444 2.95402L20.4444 36.3976L23.1966 38.3191L25.9488 36.3975L25.9488 2.95402H20.4444ZM29.0941 2.95402L29.0941 35.4763H34.5983V2.95402H29.0941ZM37.7436 2.95402V35.4763H42.0684C42.5027 35.4763 42.8547 35.1457 42.8547 34.7378V2.95402H37.7436Z" fill="#5A5D65"/>
</svg>
